<svg width="32" height="32" viewBox="0 0 32 32" fill="none" xmlns="http://www.w3.org/2000/svg">
<g clip-path="url(#clip0_2323_2029)">
<path d="M30.2339 32C31.2091 32 31.9998 31.2091 31.9998 30.2339V1.76609C31.9998 0.790483 31.209 0 30.2339 0H1.76609C0.790485 0 0 0.790603 0 1.76609V30.2338C0 31.2091 0.790485 31.9999 1.76609 31.9999H30.2339V32Z" fill="#4A6EA9"/>
<path d="M22.0794 32.0009V19.6088H26.2389L26.8616 14.7793H22.0793V11.6959C22.0793 10.2977 22.4675 9.34487 24.4727 9.34487L27.03 9.34367V5.02426C26.5877 4.96551 25.0695 4.83398 23.3035 4.83398C19.6163 4.83398 17.092 7.08457 17.092 11.2178V14.7793H12.9219V19.6088H17.092V32.0007H22.0794V32.0009Z" fill="white"/>
</g>
<defs>
<clipPath id="clip0_2323_2029">
<rect width="32" height="32" rx="6" fill="white"/>
</clipPath>
</defs>
</svg>
