<svg width="16" height="16" viewBox="0 0 16 16" fill="none" xmlns="http://www.w3.org/2000/svg">
<path d="M4.39248 14.5541C3.65809 13.7196 2.92372 12.8517 2.45637 11.8169C1.98905 10.7153 1.85551 9.44683 2.08919 8.24512C2.32287 7.0434 2.85694 5.90844 3.62473 4.9404C3.55797 5.77493 3.8584 6.64283 4.42587 7.27708C4.09205 5.67479 4.62616 3.93897 5.69434 2.6705C6.76252 1.40203 8.2313 0.567466 9.76681 0C8.99906 0.801144 8.89891 2.06961 9.19934 3.13782C9.49977 4.20601 10.134 5.14068 10.7015 6.10872C11.269 7.07676 11.8031 8.07819 11.8365 9.17976C12.1369 8.6123 12.4707 8.0448 12.671 7.41058C12.8713 6.77633 12.9714 6.10872 12.8045 5.47447C13.4054 6.20886 13.7392 6.94323 13.9061 7.8779C14.073 8.81258 14.0396 9.78062 13.9395 10.7153C13.806 11.7501 13.5389 12.8183 12.9714 13.6862C12.3038 14.721 11.2356 15.4554 10.0673 15.856C7.99763 16.2232 5.96137 15.9227 4.39248 14.5541Z" fill="#F3705A"/>
<path d="M6.92812 15.7884C9.66535 16.8566 12.3692 13.6187 10.8671 11.1151C10.8671 11.0817 10.8337 11.0817 10.8337 11.0483C10.9672 12.4169 10.6334 13.4184 9.99913 13.9859C10.333 13.1847 10.0993 12.25 9.69871 11.4489C9.29813 10.6812 8.73067 9.98015 8.2967 9.24576C7.86274 8.47801 7.52895 7.61008 7.72924 6.74219C6.92809 7.34304 6.36063 8.24433 6.12695 9.21237C5.89327 10.1804 6.0268 11.2486 6.46077 12.1499C5.96005 11.7827 5.59287 11.1819 5.55948 10.5476C5.02537 11.1819 4.69159 12.0164 4.72495 12.8509C4.72498 14.1528 5.75977 15.3211 6.92812 15.7884Z" fill="#FFD15C"/>
</svg>
