<svg width="48" height="49" viewBox="0 0 48 49" fill="none" xmlns="http://www.w3.org/2000/svg">
<path fill-rule="evenodd" clip-rule="evenodd" d="M14.7043 8.06158V10.6232H10.8521H7V12.5542V14.4852H10.9262H14.8524L14.8081 14.9384C14.6933 16.1116 13.9904 18.7659 13.4124 20.209C12.3146 22.9496 10.4707 25.0874 7.70766 26.8229C7.31395 27.0701 7.00458 27.3126 7.02012 27.3616C7.03567 27.4106 7.28174 28.2665 7.56693 29.2635C7.85212 30.2606 8.09308 31.0884 8.10224 31.1032C8.1328 31.1522 9.54042 30.1599 10.3219 29.5385C13.3859 27.1025 15.5564 23.9694 16.6406 20.4175C16.8379 19.7712 16.9624 19.5214 16.9624 19.7719C16.9624 19.9392 17.6772 21.6341 18.0855 22.4352C18.6293 23.5021 19.1849 24.4247 19.8705 25.3995C20.6921 26.5678 21.9545 28.14 22.0121 28.0665C22.0702 27.9923 23.1391 26.4766 23.1391 26.3597C23.1391 26.3166 22.9673 24.0907 22.7573 23.8574C20.8914 21.7852 19.5653 19.6443 18.7933 17.4578C18.5062 16.6445 18.0827 15.1642 17.9936 14.6626L17.9481 14.4064H21.7724H25.5965V12.4754V10.5443H21.7776H17.9587V8.02217V5.5H16.3315H14.7043V8.06158ZM28.884 13.9817C28.8676 14.0364 27.1499 19.767 25.0669 26.7162C22.9838 33.6654 21.2795 39.3847 21.2795 39.4256C21.2795 39.4702 21.9277 39.5 22.8995 39.5L24.5336 38.6237L24.7727 37.8158C24.9042 37.3715 25.3816 36.5365 25.8508 34.8892L26.7038 31.8941L31.1148 31.8742L35.5258 31.8544L36.6137 35.6772L37.5227 38.5739L39.3509 39.5H41L40.7223 38.5739C40.5696 38.0645 38.8435 32.3099 36.8866 25.7857L33.3287 13.9236L31.1212 13.9028C29.3901 13.8866 28.9075 13.9036 28.884 13.9817ZM32.7564 22.8511C33.6403 25.6154 34.3635 27.9031 34.3635 27.9348C34.3635 27.9666 32.899 27.9926 31.1091 27.9926C29.3192 27.9926 27.8544 27.966 27.8542 27.9335C27.8532 27.8234 31.0756 17.8282 31.1126 17.8266C31.1327 17.8258 31.8725 20.0868 32.7564 22.8511Z" fill="#FFC600"/>
</svg>
