<svg width="48" height="48" viewBox="0 0 48 48" fill="none" xmlns="http://www.w3.org/2000/svg">
<path fill-rule="evenodd" clip-rule="evenodd" d="M23.5903 5.04756C22.685 5.28784 22.1786 6.20454 22.5266 6.97303L22.6456 7.23563L20.6187 9.79267C19.504 11.1991 18.5597 12.3566 18.5203 12.3651C18.4661 12.3768 14.9301 11.5489 13.0154 11.0764C12.8307 11.0308 12.8054 11.0026 12.7721 10.8046C12.7212 10.5021 12.5613 10.2256 12.302 9.99178C11.9913 9.71168 11.7417 9.60859 11.302 9.57871C10.8121 9.54537 10.4794 9.65949 10.1106 9.98719C9.19467 10.801 9.61507 12.2848 10.8351 12.5441C11.1042 12.6013 11.149 12.6301 11.1969 12.7767C11.227 12.8688 11.5971 14.2692 12.0194 15.8888L12.7872 18.8335L12.8139 20.0763C12.8432 21.4405 12.9358 22.0952 13.2471 23.1417C13.8899 25.3021 15.4264 27.4089 17.325 28.7332C17.5239 28.8719 17.6866 29.0013 17.6866 29.0209C17.6866 29.0404 17.5076 29.1315 17.2887 29.2233C16.7518 29.4486 15.8853 29.9147 15.1734 30.3611C10.9575 33.0047 8.23862 37.5268 8.03328 42.2364L8 43L9.58686 42.9921L11.1737 42.9841L11.1885 42.6877C11.368 39.0819 12.8763 36.0849 15.6957 33.7321C16.6693 32.9197 18.2191 32.0531 19.5324 31.5869C21.8787 30.754 24.7111 30.6127 27.1572 31.2066C29.4834 31.7712 31.4682 32.8633 33.1625 34.5108C35.3589 36.6464 36.5974 39.3307 36.7758 42.3418L36.8145 42.9947L38.4073 42.9902L40 42.9857L39.9654 42.2022C39.8583 39.7841 39.0299 37.2383 37.6623 35.1241C36.4755 33.2895 34.7792 31.604 32.9322 30.4243C32.255 29.9918 31.174 29.4068 30.6957 29.2141C30.4833 29.1286 30.317 29.0406 30.3261 29.0188C30.3351 28.997 30.5985 28.785 30.9114 28.5477C32.34 27.4639 33.5267 26.0224 34.2155 24.5339C34.9215 23.0085 35.2057 21.6202 35.2058 19.6976L35.2059 18.8326L36.0212 15.7305L36.8366 12.6284L37.1847 12.5379C38.3609 12.232 38.7795 10.942 37.9818 10.0811C37.6767 9.75188 37.3731 9.61113 36.8979 9.57876C36.4182 9.54602 36.0818 9.65727 35.7305 9.96482C35.4445 10.2153 35.282 10.487 35.2286 10.8046C35.1953 11.0026 35.17 11.0308 34.9853 11.0764C33.7943 11.3706 29.5463 12.3767 29.4951 12.3767C29.4582 12.3767 28.5116 11.2201 27.3915 9.80634L25.355 7.236L25.4808 6.95817C25.7725 6.31417 25.4232 5.48943 24.723 5.16837C24.3535 4.99904 23.9396 4.95484 23.5903 5.04756ZM26.0743 13.2148C27.1932 14.6267 28.1249 15.7912 28.1448 15.8026C28.1648 15.8139 29.2535 15.5701 30.5642 15.2606C31.875 14.9512 32.9575 14.7076 32.9699 14.7194C32.9822 14.7311 32.8505 15.2709 32.6771 15.9189C32.5037 16.5669 32.3618 17.1049 32.3618 17.1143C32.3618 17.1238 28.5992 17.1315 24.0003 17.1315C19.4015 17.1315 15.6388 17.1254 15.6387 17.118C15.6387 17.1106 15.4982 16.5714 15.3265 15.9198C15.1548 15.2681 15.023 14.7268 15.0335 14.7168C15.0441 14.7068 16.1253 14.9516 17.4361 15.2607C18.7471 15.5698 19.8363 15.8134 19.8567 15.8019C19.8771 15.7904 20.8089 14.626 21.9274 13.2143C23.0459 11.8027 23.9788 10.6477 24.0005 10.6477C24.0222 10.6477 24.9554 11.8029 26.0743 13.2148ZM31.9906 20.6301C31.8329 22.5321 31.0925 24.1294 29.7457 25.4722C28.7208 26.4941 27.4415 27.1893 25.8859 27.5697C25.0022 27.7859 23.7279 27.8379 22.7774 27.6967C20.9971 27.4321 19.4384 26.6561 18.1985 25.4172C16.8979 24.1176 16.1904 22.5617 16.0094 20.6031L15.9733 20.2113H23.9993H32.0253L31.9906 20.6301Z" fill="#FFC600"/>
</svg>
