<svg width="48" height="48" viewBox="0 0 48 48" fill="none" xmlns="http://www.w3.org/2000/svg">
<path d="M18.1307 6.09766C17.8141 6.48573 17.6409 6.97209 17.6406 7.47405V26.1106C16.7378 25.5651 15.6158 25.242 14.4004 25.242C11.4194 25.242 9 27.186 9 29.5862C9 31.9863 11.4194 33.9304 14.4004 33.9304C17.3814 33.9304 19.8008 31.9863 19.8008 29.5862V11.7748L28.4414 10.0371V6.17079C28.4412 5.84955 28.3701 5.53236 28.2333 5.24206C28.0965 4.95176 27.8974 4.69559 27.6503 4.49199C27.4032 4.28839 27.1143 4.14244 26.8043 4.06465C26.4943 3.98686 26.1711 3.97917 25.8578 4.04213L19.3774 5.34539C18.8878 5.44377 18.4473 5.7096 18.1307 6.09766Z" fill="#FFC600"/>
<path d="M32.7729 24.4914C32.551 24.7635 32.4296 25.1044 32.4294 25.4562V38.5191C31.7965 38.1366 31.0099 37.91 30.1578 37.91C28.0684 37.91 26.3725 39.2726 26.3725 40.955C26.3725 42.6374 28.0684 44 30.1578 44C32.2473 44 33.9431 42.6374 33.9432 40.9551L33.9435 28.4707L40 27.2527V24.5427C39.9999 24.3175 39.9501 24.0952 39.8542 23.8917C39.7583 23.6882 39.6187 23.5087 39.4455 23.366C39.2723 23.2233 39.0698 23.121 38.8525 23.0664C38.6353 23.0119 38.4087 23.0065 38.1891 23.0507L33.6467 23.9642C33.3036 24.0331 32.9949 24.2194 32.7729 24.4914Z" fill="#FFC600"/>
</svg>
