<svg width="32" height="32" viewBox="0 0 32 32" fill="none" xmlns="http://www.w3.org/2000/svg">
<path d="M26 32H6C2.686 32 0 29.314 0 26V6C0 2.686 2.686 0 6 0H26C29.314 0 32 2.686 32 6V26C32 29.314 29.314 32 26 32Z" fill="#FFE6E2"/>
<path d="M8 8.33203H10.813V23.665H8V8.33203Z" fill="#FD907E"/>
<path d="M18.2562 8.33203C15.0782 8.33203 12.4932 10.914 12.4932 14.087C12.4932 17.253 15.0782 19.827 18.2562 19.827C21.4252 19.827 24.0002 17.25 24.0002 14.087C24.0002 10.915 21.4252 8.33203 18.2562 8.33203Z" fill="#FC573B"/>
</svg>
