<svg width="32" height="32" viewBox="0 0 32 32" fill="none" xmlns="http://www.w3.org/2000/svg">
<path d="M31.9906 0H0.009375C0.00419733 0 0 0.00419733 0 0.009375V31.9906C0 31.9958 0.00419733 32 0.009375 32H31.9906C31.9958 32 32 31.9958 32 31.9906V0.009375C32 0.00419733 31.9958 0 31.9906 0Z" fill="white"/>
<path d="M23.5626 11.55L11.2938 24.9375H6.79382C6.48132 24.9375 6.23132 24.625 6.29382 24.3125L9.29382 5.3125C9.35632 4.875 9.73132 4.5625 10.1688 4.5625H17.7938C23.0438 4.75 24.4813 7.4375 23.5438 11.5625L23.5626 11.55Z" fill="#002C8A"/>
<path d="M23.7626 10.3125C25.6376 11.3125 26.0751 13.1875 25.4501 15.6875C24.6376 19.375 22.2001 20.9375 18.6376 21L17.6376 21.0625C17.2626 21.0625 17.0126 21.3125 16.9501 21.6875L16.1376 26.625C16.0751 27.0625 15.7001 27.375 15.2626 27.375H11.5126C11.2001 27.375 10.9501 27.0625 11.0126 26.75L12.3876 17.8125C12.4501 17.5 23.7626 10.3125 23.7626 10.3125Z" fill="#009BE1"/>
<path d="M12.3125 18.25L13.5625 10.3125C13.6035 10.1245 13.7053 9.95529 13.8522 9.83101C13.9991 9.70673 14.1828 9.63432 14.375 9.625H20.375C21.8125 9.625 22.875 9.875 23.75 10.3125C23.4375 13.0625 22.125 17.5 15.75 17.625H13C12.6875 17.625 12.375 17.875 12.3125 18.25Z" fill="#001F6B"/>
</svg>
