<svg width="25" height="24" viewBox="0 0 25 24" fill="none" xmlns="http://www.w3.org/2000/svg">
<path d="M16.9219 12.1152H8.30859V18.2676H16.9219V12.1152Z" fill="#FFC600"/>
<path d="M18.7676 1H6.46289C5.44513 1 4.61719 1.86896 4.61719 2.88672V7.55385L3.56698 8.60405C3.45161 8.71943 3.38672 8.87566 3.38672 9.03906V11.5C3.38672 11.8401 3.66189 12.1152 4.00195 12.1152H4.61719V13.7062L3.56698 14.7564C3.45161 14.8718 3.38672 15.028 3.38672 15.1914V20.1543C3.38672 21.1721 4.21466 22 5.23242 22H18.7676C19.7853 22 20.6133 21.1721 20.6133 20.1543V2.88672C20.6133 1.86896 19.7853 1 18.7676 1ZM15.6914 4.11719C15.6914 3.77713 15.9666 3.50195 16.3066 3.50195C16.6467 3.50195 16.9219 3.77713 16.9219 4.11719V6.57812C16.9219 6.91819 16.6467 7.19336 16.3066 7.19336C15.9666 7.19336 15.6914 6.91819 15.6914 6.57812V4.11719ZM12 4.11719C12 3.77713 12.2752 3.50195 12.6152 3.50195C12.9553 3.50195 13.2305 3.77713 13.2305 4.11719V6.57812C13.2305 6.91819 12.9553 7.19336 12.6152 7.19336C12.2752 7.19336 12 6.91819 12 6.57812V4.11719ZM8.30859 4.11719C8.30859 3.77713 8.58377 3.50195 8.92383 3.50195C9.26389 3.50195 9.53906 3.77713 9.53906 4.11719V6.57812C9.53906 6.91819 9.26389 7.19336 8.92383 7.19336C8.58377 7.19336 8.30859 6.91819 8.30859 6.57812V4.11719ZM18.1523 18.8828C18.1523 19.2229 17.8772 19.498 17.5371 19.498H7.69336C7.3533 19.498 7.07812 19.2229 7.07812 18.8828V11.5C7.07812 11.1599 7.3533 10.8848 7.69336 10.8848H17.5371C17.8772 10.8848 18.1523 11.1599 18.1523 11.5V18.8828Z" fill="#FFC600"/>
</svg>
