<svg width="24" height="24" viewBox="0 0 24 24" fill="none" xmlns="http://www.w3.org/2000/svg">
<path d="M8.95703 15.3844L10.2514 14.618L8.95703 13.8516V15.3844Z" fill="#FFC600"/>
<path d="M16.4217 12.7734C16.162 12.7734 15.9069 12.7999 15.658 12.8523C15.1161 9.99255 12.5973 7.85156 9.61328 7.85156C6.6036 7.85156 4.05454 10.0259 3.55034 12.9534C2.04894 13.4401 1 14.8518 1 16.4648C1 18.5002 2.65601 20.1562 4.69141 20.1562H16.4217C18.4573 20.1562 20.1131 18.5002 20.1131 16.4648C20.1131 14.4293 18.4573 12.7734 16.4217 12.7734ZM11.7724 15.1485L8.65518 16.9942C8.24679 17.2361 7.72656 16.9413 7.72656 16.4648V12.7734C7.72656 12.2976 8.24551 12.0013 8.65518 12.2441L11.7724 14.0898C12.1739 14.3274 12.1745 14.9104 11.7724 15.1485Z" fill="#FFC600"/>
<path d="M16.1374 9.89849C16.3205 10.1848 16.701 10.2683 16.9872 10.0853C17.2733 9.90218 17.357 9.52166 17.174 9.23551C16.7927 8.63935 16.3378 8.09076 15.8223 7.60498C15.5749 7.37187 15.1856 7.38356 14.9526 7.63094C14.7196 7.87815 14.7312 8.26748 14.9784 8.5006C15.4206 8.91716 15.8106 9.3874 16.1374 9.89849Z" fill="#FFC600"/>
<path d="M16.129 6.23876C17.0924 7.0235 17.889 7.96878 18.4964 9.04833C18.6632 9.34457 19.0384 9.44935 19.3343 9.28273C19.6304 9.1161 19.7353 8.74103 19.5687 8.44479C18.8854 7.2305 17.9896 6.1673 16.9062 5.28482C16.6428 5.07013 16.2552 5.10971 16.0406 5.3731C15.826 5.63666 15.8656 6.02407 16.129 6.23876Z" fill="#FFC600"/>
<path d="M21.9301 7.64015C20.9916 5.83066 19.6278 4.22897 17.9862 3.00827C17.7137 2.8056 17.3282 2.86215 17.1255 3.13484C16.9227 3.40737 16.9794 3.79285 17.2521 3.99553C18.7447 5.10567 19.9846 6.56173 20.8378 8.20668C20.9943 8.50837 21.3658 8.62581 21.6672 8.46944C21.9689 8.31306 22.0867 7.94168 21.9301 7.64015Z" fill="#FFC600"/>
</svg>
