<svg width="32" height="32" viewBox="0 0 32 32" fill="none" xmlns="http://www.w3.org/2000/svg">
<path d="M28 32H4C1.792 32 0 30.208 0 28V4C0 1.792 1.792 0 4 0H28C30.208 0 32 1.792 32 4V28C32 30.208 30.208 32 28 32Z" fill="#1D9BF0"/>
<path d="M12.2878 24.1271C19.8318 24.1271 23.9598 17.8711 23.9598 12.4551C23.9598 12.2791 23.9598 12.1031 23.9518 11.9271C24.7518 11.3511 25.4478 10.6231 25.9998 9.79909C25.2638 10.1271 24.4718 10.3431 23.6398 10.4471C24.4878 9.94309 25.1358 9.13509 25.4478 8.17509C24.6558 8.64709 23.7758 8.98309 22.8398 9.16709C22.0878 8.36709 21.0238 7.87109 19.8478 7.87109C17.5838 7.87109 15.7438 9.71109 15.7438 11.9751C15.7438 12.2951 15.7838 12.6071 15.8478 12.9111C12.4398 12.7431 9.41581 11.1031 7.39181 8.62309C7.03981 9.23109 6.83981 9.93509 6.83981 10.6871C6.83981 12.1111 7.56781 13.3671 8.66381 14.1031C7.99181 14.0791 7.35981 13.8951 6.80781 13.5911C6.80781 13.6071 6.80781 13.6231 6.80781 13.6471C6.80781 15.6311 8.22381 17.2951 10.0958 17.6711C9.75181 17.7671 9.39181 17.8151 9.01581 17.8151C8.75181 17.8151 8.49581 17.7911 8.24781 17.7431C8.76781 19.3751 10.2878 20.5591 12.0798 20.5911C10.6718 21.6951 8.90381 22.3511 6.98381 22.3511C6.65581 22.3511 6.32781 22.3351 6.00781 22.2951C7.81581 23.4471 9.97581 24.1271 12.2878 24.1271Z" fill="white"/>
</svg>
