<svg width="25" height="24" viewBox="0 0 25 24" fill="none" xmlns="http://www.w3.org/2000/svg">
<g clip-path="url(#clip0_2875_1341)">
<path d="M19.4678 12.2109H17.8438C18.0093 12.6642 18.0997 13.1533 18.0997 13.6631V19.8011C18.0997 20.0136 18.0627 20.2176 17.9954 20.4074H20.6804C21.6833 20.4074 22.4992 19.5914 22.4992 18.5885V15.2424C22.4993 13.5709 21.1394 12.2109 19.4678 12.2109Z" fill="#FFC600"/>
<path d="M5.89955 13.6631C5.89955 13.1532 5.98999 12.6642 6.15553 12.2109H4.53147C2.85992 12.2109 1.5 13.5709 1.5 15.2424V18.5885C1.5 19.5914 2.31593 20.4074 3.31888 20.4074H6.00385C5.93655 20.2176 5.89955 20.0136 5.89955 19.8011V13.6631Z" fill="#FFC600"/>
<path d="M13.8576 10.6309H10.1448C8.4732 10.6309 7.11328 11.9908 7.11328 13.6623V19.8003C7.11328 20.1351 7.38472 20.4066 7.71958 20.4066H16.2828C16.6176 20.4066 16.889 20.1352 16.889 19.8003V13.6623C16.889 11.9908 15.5291 10.6309 13.8576 10.6309Z" fill="#FFC600"/>
<path d="M12.0012 2.59375C9.99093 2.59375 8.35547 4.22921 8.35547 6.23951C8.35547 7.60308 9.10807 8.79397 10.2195 9.41922C10.7467 9.71576 11.3545 9.88524 12.0012 9.88524C12.6479 9.88524 13.2557 9.71576 13.7829 9.41922C14.8944 8.79397 15.6469 7.60304 15.6469 6.23951C15.6469 4.22925 14.0115 2.59375 12.0012 2.59375Z" fill="#FFC600"/>
<path d="M5.59761 5.99219C4.09418 5.99219 2.87109 7.21528 2.87109 8.71871C2.87109 10.2221 4.09418 11.4452 5.59761 11.4452C5.97897 11.4452 6.34213 11.3662 6.67202 11.2242C7.24238 10.9787 7.71267 10.544 8.00367 9.99951C8.20793 9.61736 8.32413 9.18141 8.32413 8.71871C8.32413 7.21532 7.10104 5.99219 5.59761 5.99219Z" fill="#FFC600"/>
<path d="M18.4023 5.99219C16.8989 5.99219 15.6758 7.21528 15.6758 8.71871C15.6758 9.18145 15.792 9.6174 15.9962 9.99951C16.2872 10.544 16.7575 10.9787 17.3279 11.2242C17.6578 11.3662 18.0209 11.4452 18.4023 11.4452C19.9057 11.4452 21.1288 10.2221 21.1288 8.71871C21.1288 7.21528 19.9057 5.99219 18.4023 5.99219Z" fill="#FFC600"/>
</g>
<defs>
<clipPath id="clip0_2875_1341">
<rect width="21" height="21" fill="white" transform="translate(1.5 1)"/>
</clipPath>
</defs>
</svg>
